<svg xmlns="http://www.w3.org/2000/svg" viewBox="0 0 1539.3765 1000.172"><defs><style>.cls-1{fill:#174ea4;}.cls-2{fill:#ec2222;}.cls-3{fill:#002c29;}.cls-10,.cls-11,.cls-12,.cls-13,.cls-14,.cls-15,.cls-4,.cls-5,.cls-6,.cls-8,.cls-9{font-size:109px;}.cls-10,.cls-11,.cls-12,.cls-13,.cls-14,.cls-15,.cls-4,.cls-5,.cls-6,.cls-7,.cls-8,.cls-9{font-family:neo-latina, neo latina;}.cls-4{letter-spacing:-0.081em;}.cls-5{letter-spacing:-0.081em;}.cls-6{letter-spacing:-0.081em;}.cls-7{font-size:105.5657px;letter-spacing:-0.081em;}.cls-8{letter-spacing:-0.081em;}.cls-9{letter-spacing:-0.081em;}.cls-10{letter-spacing:-0.081em;}.cls-11{letter-spacing:-0.081em;}.cls-12{letter-spacing:-0.081em;}.cls-13{letter-spacing:-0.081em;}.cls-14{letter-spacing:-0.081em;}.cls-15{letter-spacing:-0.081em;}</style></defs><title>Logo ISS</title><g id="Calque_2" data-name="Calque 2"><polygon class="cls-1" points="164.661 789.44 234.019 633.991 408.845 554.945 164.661 789.44"/><polygon class="cls-1" points="203.854 796.927 236.881 742.541 289.725 689.477 281.579 752.89 203.854 796.927"/><polygon class="cls-1" points="306.239 780.413 314.606 671.202 391.67 596.56 375.817 674.725 306.239 780.413"/><polygon class="cls-1" points="393.872 883.018 505.946 724.046 518.936 662.835 485.028 654.248 444.955 705.991 393.872 883.018"/><polygon class="cls-1" points="573.982 772.927 577.505 822.028 659.193 861.44 573.982 772.927"/><polygon class="cls-1" points="621.322 804.633 621.322 755.752 588.514 780.193 621.322 804.633"/><polygon class="cls-1" points="579.927 768.633 637.835 743.202 659.193 680.229 603.707 660.413 566.936 728.67 579.927 768.633"/><polygon class="cls-1" points="402.459 641.257 480.845 542.174 435.707 530.064 402.459 641.257"/><polygon class="cls-1" points="485.248 609.33 509.909 575.642 558.349 662.615 485.248 609.33"/><polygon class="cls-1" points="518.936 718.761 533.468 674.945 644.397 674.945 518.936 718.761"/><polygon class="cls-1" points="576.624 615.275 611.634 664.817 664.037 638.615 665.138 597.661 548.881 579.826 576.624 615.275"/><polygon class="cls-1" points="494.056 541.734 569.799 452.119 675.487 470.394 670.643 575.642 494.056 541.734"/><polygon class="cls-1" points="784.037 759.716 809.138 570.138 746.166 678.688 784.037 759.716"/><polygon class="cls-1" points="694.643 626.505 722.606 570.138 783.597 604.046 700.808 495.275 694.643 626.505"/><polygon class="cls-1" points="694.643 447.936 751.45 403.239 777.652 555.385 694.643 447.936"/><polygon class="cls-1" points="795.487 453.881 841.065 608.89 946.753 630.908 795.487 453.881"/><polygon class="cls-1" points="770.166 411.385 926.496 552.743 862.202 328.376 770.166 411.385"/><polygon class="cls-1" points="893.909 271.569 885.322 327.495 960.624 279.495 984.624 186.578 893.909 271.569"/><polygon class="cls-1" points="923.487 453.881 954.569 549.881 992.771 535.789 923.487 453.881"/><path class="cls-1" d="M1041.3945,600.367s25.3211-101.5046,25.6514-101.2844,27.3027,113.9449,27.3027,113.9449Z" transform="translate(-36.5132 -49.2752)"/><polygon class="cls-1" points="981.652 444.523 1000.257 505.954 1020.735 423.716 981.652 444.523"/><polygon class="cls-1" points="933.432 428.67 981.652 495.055 960.624 406.211 933.432 428.67"/><polygon class="cls-1" points="1047.377 439.018 1061.909 490.725 1084.037 445.183 1047.377 439.018"/><polygon class="cls-1" points="993.762 324.633 991.23 402.028 984.624 349.734 993.762 324.633"/><polygon class="cls-1" points="943.89 348.193 970.973 389.257 970.973 290.615 943.89 348.193"/><polygon class="cls-1" points="880.588 359.862 955.45 293.477 915.487 412.927 880.588 359.862"/><polygon class="cls-1" points="987.157 235.239 975.157 277.073 1018.643 277.073 987.157 235.239"/><polygon class="cls-1" points="917.854 566.505 960.459 628.266 1185.872 590.615 917.854 566.505"/><polygon class="cls-1" points="1157.303 610.761 1132.863 729 1223.524 606.468 1157.303 610.761"/><polygon class="cls-1" points="878.303 657.661 812.248 625.376 770.826 884.009 878.303 657.661"/><polygon class="cls-1" points="1079.524 127.899 1105.946 147.716 1135.01 87.275 1079.524 127.899"/><polygon class="cls-1" points="1139.634 67.954 1080.845 102.881 1133.111 0 1139.634 67.954"/><polygon class="cls-1" points="1140.872 4.128 1154.826 94.211 1168.946 37.156 1140.872 4.128"/><polygon class="cls-1" points="1043.083 313.844 1094.276 409.734 1099.67 344.67 1158.679 324.633 1043.083 313.844"/><polygon class="cls-1" points="1018.863 310.101 1011.487 413.477 1091.634 426.138 1018.863 310.101"/><polygon class="cls-1" points="1105.946 269.697 1124.991 317.807 1161.212 278.505 1105.946 269.697"/><polygon class="cls-1" points="1166.799 200.147 1170.679 297.55 1329.267 234.248 1166.799 200.147"/><polygon class="cls-1" points="1173.569 103.624 1173.157 139.541 1228.065 173.89 1173.569 103.624"/><polygon class="cls-1" points="1269.652 206.174 1346.496 182.064 1378.313 211.789 1269.652 206.174"/><polygon class="cls-1" points="1239.817 151.899 1241.358 191.752 1339.45 167.312 1239.817 151.899"/><polygon class="cls-1" points="1161.982 98.615 1145.028 237.33 1052.331 232.266 1161.982 98.615"/></g><g id="Calque_3" data-name="Calque 3"><polygon class="cls-2" points="538.698 692.009 533.579 679.459 523.34 624.303 523.34 603.33 575.689 499.624 575.689 651.385 538.698 692.009"/><polygon class="cls-2" points="909.542 350.394 912.404 398.174 955.78 401.917 859.56 452.119 909.542 350.394"/><polygon class="cls-2" points="1328.056 250.927 1404.349 245.807 1382.551 222.853 1328.056 250.927"/><polyline class="cls-2" points="1018.753 226.651 990.569 309.771 1140.624 236.339 1019.303 226.651"/></g><g id="Calque_4" data-name="Calque 4"><polygon class="cls-3" points="1378.753 186.138 1412.441 220.486 1421.689 182.615 1378.753 186.138"/><path class="cls-3" d="M1244.6239,223.7431c-.6606-.44-26.8624-20.0367-26.8624-20.0367l-40.6239,2.2019Z" transform="translate(-36.5132 -49.2752)"/></g><g id="Calque_5" data-name="Calque 5"><text class="cls-4" transform="translate(18.0556 976.3019) scale(1.0385 1)">N</text><text class="cls-5" transform="translate(82.5693 976.3019) scale(1.052 1)">N</text><text class="cls-6" transform="translate(148.404 976.3019)">O</text><text class="cls-7" transform="translate(220.8447 975.7336) scale(1.1371 1)">V</text><text class="cls-8" transform="translate(295.4868 976.3019) scale(0.9131 1)">A</text><text class="cls-6" transform="translate(367.9273 976.3019)">T</text><text class="cls-9" transform="translate(427.6148 976.302) scale(1.0253 1)">I</text><text class="cls-7" transform="translate(459.5237 975.7336) scale(1.1371 1)">V</text><text class="cls-10" transform="translate(535.0463 976.3019) scale(0.9304 1)">E</text><text class="cls-11" transform="translate(638.3125 975.7336) scale(1.0717 1)">S</text><text class="cls-12" transform="translate(709.6513 975.7336) scale(0.8983 1)">M</text><text class="cls-13" transform="translate(790.7343 976.302) scale(0.9041 1)">A</text><text class="cls-14" transform="translate(855.3032 975.7336) scale(0.9499 1)">R</text><text class="cls-6" transform="translate(932.2117 976.302)">T</text><text class="cls-11" transform="translate(1035.8629 975.7336) scale(1.0717 1)">S</text><text class="cls-11" transform="translate(1193.0739 976.302) scale(1.0717 1)">S</text><text class="cls-15" transform="translate(1116.2209 976.302) scale(1.1203 1)">Y</text><text class="cls-6" transform="translate(1275.3401 976.3021)">T</text><text class="cls-10" transform="translate(1336.2665 976.3021) scale(0.9304 1)">E</text><text class="cls-12" transform="translate(1395.2568 975.7336) scale(0.8983 1)">M</text><text class="cls-11" transform="translate(1466.7161 975.7336) scale(1.0717 1)">S</text><text class="cls-9" transform="translate(0.0001 976.302) scale(1.0253 1)">I</text></g></svg>